<svg xmlns="http://www.w3.org/2000/svg" width="32" height="32" viewBox="0 0 32 32">
  <circle cx="16" cy="14" r="5" fill="#facc15"/>
  <g stroke="#facc15" stroke-width="1.5" stroke-linecap="round">
    <line x1="16" y1="4" x2="16" y2="1"/>
    <line x1="16" y1="24" x2="16" y2="27"/>
    <line x1="6" y1="14" x2="3" y2="14"/>
    <line x1="26" y1="14" x2="29" y2="14"/>
  </g>
  <path d="M16 22a7 7 0 0 1 7-7 5 5 0 0 1 0-10 8 8 0 0 0-16 0 6 6 0 0 0 0 12h4a5 5 0 0 1 5 5z" fill="#38bdf8" opacity="0.6"/>
  <path d="M11 24 a3 3 0 0 1 3-3 a4 4 0 0 1 7 0 a3 3 0 0 1 0 6h-8a3 3 0 0 1-2-3z" fill="#38bdf8"/>
</svg>
